<?xml version="1.0" encoding="UTF-8" standalone="no"?>
<svg xmlns:rdf="http://www.w3.org/1999/02/22-rdf-syntax-ns#" xmlns="http://www.w3.org/2000/svg" enable-background="new 0 0 298.264 260.827" xml:space="preserve" height="197.62" viewBox="0 0 225.69628 197.61962" width="225.7" version="1.1" y="0px" x="0px" xmlns:cc="http://creativecommons.org/ns#" xmlns:dc="http://purl.org/dc/elements/1.1/"><g transform="matrix(.75 0 0 .75 .71862 .92206)"><polygon fill-rule="evenodd" points="205.57 72.067 221.75 72.088 220.28 88.06 217.23 84.752 196.18 102.36 186.06 91.029 155.44 116.79 148.95 94.968 136.61 134.64 67.35 134.64 44.75 118.26 123.66 118.26 148.95 39.789 165.36 89.896 187.7 71.212 198.66 83.954 208.74 75.417" clip-rule="evenodd" fill="#11287a"/><path d="m69.137 137.26 22.518 16.326h113.62l22.227-16.326h-158.36zm24.227 18.887 15.414 11.174-1.7578 5.209h83.566l-1.7949-5.5137 14.797-10.869h-110.22zm13.238 19-5.2637 16.328h94.877l-5.2168-16.328h-84.396zm-5.6797 18.943-5.2656 16.328h37.652l15.529-11.41 15.736 11.41h37.271l-5.2168-16.328h-95.707zm-5.6816 18.943-5.2812 16.385h19.283l22.305-16.385h-36.307zm71.119 0 22.598 16.385h18.533l-5.2324-16.385h-35.898zm-76.799 18.945-5.584 17.322 23.816-17.322h-18.232zm101.11 0 22.41 16.248-5.1875-16.248h-17.223z" fill-rule="evenodd" clip-rule="evenodd" fill="#900"/><path d="m163.28 0-9.123 17.799c-0.784 1.535-1.4982 2.5654-2.0742 3.0664-0.321 0.249-0.90733 0.41067-1.8613 0.51367l-0.043 0.60547 7.002 0.49023 0.043-0.60742c-1.073-0.142-1.7357-0.35644-2.0527-0.64844-0.284-0.291-0.4312-0.60636-0.4082-0.94336 0.028-0.404 0.24482-1.0659 0.67382-1.8809l1.7617-3.4277 8.6504 0.60352 1.1211 3.291c0.365 1.074 0.51247 1.861 0.48047 2.332-0.026 0.371-0.18211 0.66416-0.53711 0.91016-0.319 0.215-0.93746 0.34245-1.8145 0.31445l-0.043 0.60547 8.7871 0.61328 0.041-0.60547c-0.904-0.131-1.5934-0.41567-2.0684-0.88867-0.472-0.506-0.97872-1.4898-1.5117-3.0488l-6.45-19.055-0.57-0.039zm-26.4 0.61914-10.1 0.70506l0.041 0.60547 0.8418-0.058594c0.842-0.059 1.4978 0.13127 1.9688 0.57227 0.329 0.349 0.52409 1.2157 0.62109 2.5957l1.0039 14.373c0.09 1.278 0.044 2.0935-0.16602 2.4805-0.361 0.634-1.0131 0.98578-1.9551 1.0508l-0.84179 0.05859 0.041 0.60547 17.27-1.2051 1.4609-6.1914-0.54492-0.0625c-0.477 1.42-0.97766 2.4695-1.4727 3.1465-0.527 0.679-1.1362 1.1625-1.8242 1.4805-0.656 0.283-1.8592 0.50109-3.5762 0.62109l-1.6152 0.11328c-1.447 0.101-2.2933 0.09177-2.5703 0.0098-0.276-0.083-0.48962-0.23589-0.64062-0.46289-0.191-0.324-0.33739-0.95624-0.40039-1.8652l-0.98-14.004c-0.091-1.312-0.0493-2.1598 0.0957-2.5078 0.143-0.382 0.45706-0.70936 0.91406-0.94336 0.455-0.269 1.2898-0.42972 2.4688-0.51172l-0.043-0.60547zm45.029 2.9551-0.15625 0.58594 0.81445 0.21875c0.815 0.218 1.3716 0.61283 1.6406 1.1738 0.23 0.446 0.1334 1.3281-0.2246 2.6641l-3.7344 13.951c-0.323 1.205-0.62933 1.961-0.98633 2.25-0.548 0.482-1.2782 0.59828-2.1582 0.36328l-0.81445-0.2168-0.15625 0.58594 10.168 2.7227c2.445 0.655 4.2978 0.90762 5.5937 0.76562 1.328-0.133 2.4329-0.60639 3.3789-1.4004 0.946-0.794 1.544-1.717 1.832-2.793 0.384-1.434 0.20874-2.7391-0.57226-3.9961-0.557-0.918-1.5353-1.7017-2.9473-2.4297 1.385-0.083 2.5283-0.44123 3.4043-1.1152 0.92-0.696 1.4991-1.5529 1.7871-2.6289 0.341-1.271 0.21295-2.4923-0.37305-3.6973-0.585-1.206-1.6064-2.214-3.1074-3-0.972-0.54-2.3394-1.0448-4.0664-1.5078l-9.34-2.4958zm-19.59 1.5 3.1426 9.25-7.6738-0.53516 4.5312-8.7148zm-53.041 0.12109-15.828 5.1367 0.18945 0.57812 0.76953-0.25c0.513-0.167 1.0383-0.19498 1.5703-0.08398 0.373 0.057 0.63833 0.2198 0.86133 0.4668 0.233 0.28 0.52491 0.96464 0.87891 2.0566l4.4648 13.744c0.406 1.252 0.54848 2.1292 0.39648 2.5332-0.219 0.638-0.77753 1.1038-1.6445 1.3848l-0.77148 0.25 0.18945 0.57812 9.1172-2.9609-0.18946-0.57812-0.76953 0.25c-0.481 0.156-1.0061 0.18327-1.5391 0.07227-0.415-0.078-0.71258-0.22712-0.89258-0.45312-0.243-0.312-0.53686-0.99859-0.88086-2.0586l-2.168-6.6777 3.8535-1.25c0.706-0.229 1.2823-0.31042 1.6973-0.23242 0.448 0.067 0.79844 0.27294 1.1484 0.58594 0.317 0.322 0.61325 0.90136 0.90625 1.6934l0.57617-0.1875-2.334-7.1914-0.57812 0.1875c0.226 1.24 0.21878 2.0942-0.0742 2.6152-0.292 0.52-0.87349 0.92089-1.7715 1.2129l-3.8516 1.25-2.7109-8.3477 4.6855-1.5215c1.092-0.354 1.9589-0.5287 2.5449-0.4707 0.609 0.015 1.1409 0.23264 1.6719 0.55664 0.51 0.367 1.0606 0.96886 1.6406 1.8809l0.54492-0.17773-1.7031-4.5918zm78.418 1.4316c0.908-0.001 1.8801 0.15341 2.9551 0.44141 1.989 0.532 3.3736 1.357 4.1406 2.541 0.806 1.16 1.0392 2.3755 0.69922 3.6465-0.219 0.814-0.6467 1.504-1.2207 2.084-0.60699 0.571-1.3331 0.93478-2.2031 1.0508-0.869 0.116-2.0864-0.03412-3.6504-0.45312-0.587-0.157-1.1393-0.30652-1.6523-0.47852-0.48-0.164-0.91897-0.35148-1.293-0.52148l2.2246-8.3105zm28.311 9.6934c-1.0066-0.04059-2.0289 0.06908-3.0703 0.33008-3.221 0.8-5.6756 2.7194-7.3926 5.8184-1.686 3.04-2.144 6.024-1.377 8.957 0.766 2.933 2.5152 5.137 5.2012 6.625 2.655 1.472 5.4669 1.7575 8.4219 0.81055 2.969-0.901 5.2709-2.8266 6.9219-5.8066 1.603-2.892 1.9854-5.8049 1.1894-8.7539-0.781-2.978-2.4405-5.1321-4.9785-6.5391-1.6044-0.88938-3.2384-1.3738-4.916-1.4414zm-30.93 0.08398c0.311 0.013 0.67778 0.07778 1.1758 0.17578 0.456 0.122 1.0181 0.23788 1.7031 0.42188 1.499 0.402 2.7079 0.96908 3.6289 1.7051 0.898 0.694 1.4815 1.514 1.7285 2.418 0.247 0.905 0.26607 1.7487 0.0391 2.5957-0.34 1.272-1.1165 2.216-2.3535 2.793-1.246 0.609-2.826 0.64-4.75 0.125-1.205-0.323-2.3781-0.77734-3.5371-1.4023l2.3652-8.832zm-103.18 0.58c-1.7337-0.02229-3.3845 0.41164-4.9707 1.291-2.568 1.423-4.2938 3.4576-5.1738 6.1816-1.028 3.155-0.70042 6.2526 1.0176 9.3516 1.684 3.04 3.9722 5.012 6.8652 5.916 2.893 0.905 5.689 0.58956 8.375-0.89844 2.656-1.472 4.3874-3.7049 5.1504-6.7129 0.809-2.994 0.39514-5.9682-1.2559-8.9492-1.604-2.892-3.8719-4.7565-6.7949-5.6445-1.1021-0.34388-2.1727-0.52178-3.2129-0.53516zm134.87 0.82422c1.1025-0.05196 2.1998 0.22476 3.3066 0.83789 1.859 1.031 2.9464 2.4824 3.2734 4.3984 0.429 2.36-0.31311 5.2275-2.1621 8.5625-1.717 3.099-3.5505 5.0141-5.5625 5.7891-1.965 0.762-3.8936 0.61947-5.7226-0.39453-1.712-0.949-2.739-2.3669-3.082-4.2539-0.408-2.464 0.27168-5.2889 2.0547-8.5059 1.716-3.098 3.6744-5.0993 5.9024-5.9863 0.66825-0.26625 1.3307-0.41609 1.9922-0.44726zm-136.1 0.747c0.67875 0.02731 1.3531 0.17953 2.0273 0.45703 2.227 0.887 4.2662 3.0371 6.1152 6.3711 1.718 3.098 2.3709 5.6682 1.9629 7.7852-0.395 2.071-1.5372 3.6286-3.3672 4.6426-1.711 0.948-3.4582 1.0694-5.2402 0.35938-2.306-0.959-4.343-3.033-6.125-6.25-1.718-3.098-2.3772-5.8187-1.9492-8.1777 0.343-1.888 1.3696-3.3061 3.1406-4.2871 1.1625-0.64438 2.3043-0.94591 3.4355-0.90039zm155.81 9.2812-0.39062 0.46484 0.64453 0.54297c0.647 0.542 0.98558 1.1333 1.0176 1.7773 0.016 0.454-0.44347 1.2138-1.3555 2.2988l-9.2852 11.062c-0.802 0.956-1.4023 1.5125-1.8223 1.6445-0.7 0.205-1.4127 0.0035-2.1367-0.60352l-0.64453-0.54297-0.39258 0.46484 7.3418 6.1621 0.39063-0.46484-0.67187-0.56445c-0.647-0.542-0.95971-1.1132-0.97071-1.7832-0.016-0.453 0.44399-1.2115 1.334-2.2715l4.1894-4.9883c0.107 0.134 0.23623 0.24356 0.36523 0.35156s0.23194 0.19425 0.33594 0.28125c0.284 0.239 0.62103 0.52028 1.082 0.86328l-0.9375 12.873 4.5762 3.8418 0.39063-0.4668c-0.843-0.884-1.4244-1.7684-1.6894-2.6074-0.243-0.865-0.31008-2.1999-0.20508-4.0059l0.60547-7.8613c1.704 0.858 3.2194 1.2037 4.5684 1.0137 1.349-0.189 2.444-0.81109 3.334-1.8711 0.825-0.981 1.2307-2.096 1.2227-3.293 0.013-1.222-0.32394-2.3424-0.96094-3.3164-0.636-0.975-1.871-2.2324-3.707-3.7734l-6.2285-5.2285zm3.8867 5.2891c0.957 0.54 1.6692 1.005 2.1602 1.418 1.111 0.933 1.7094 2.0062 1.8164 3.2422 0.108 1.236-0.27259 2.372-1.1836 3.457-0.912 1.085-2.085 1.6435-3.498 1.6465-1.413 0.004-2.9569-0.67597-4.5859-2.043-0.077-0.065-0.18116-0.15323-0.28516-0.24023-0.129-0.108-0.25811-0.2157-0.41211-0.3457l5.98-7.135zm-186.48 1.3379-5.8027 5.4062 0.41406 0.44531 0.61719-0.57617c0.618-0.575 1.2476-0.83897 1.8906-0.79297 0.475 0.064 1.1722 0.613 2.1152 1.625l6.166 6.6172c1.612 1.729 2.6128 3.1021 3.0078 4.1191 0.345 1.015 0.3313 2.1362-0.0957 3.4102-0.402 1.251-1.1113 2.3718-2.1973 3.3848-0.84 0.782-1.6682 1.2803-2.5352 1.4883-0.868 0.256-1.6572 0.29886-2.3672 0.13086-0.734-0.193-1.5545-0.62812-2.4375-1.3281-0.858-0.723-1.6242-1.3947-2.1992-2.0117l-6.6484-7.1348c-0.851-0.914-1.3284-1.6226-1.3594-2.1016-0.143-0.698 0.16698-1.3556 0.83398-1.9766l0.64258-0.59961-0.41406-0.44336-7.0859 6.6035 0.41602 0.44531 0.61523-0.57617c0.617-0.576 1.2259-0.86488 1.7969-0.79688s1.3158 0.57198 2.2598 1.584l5.959 6.3945c1.841 1.975 3.2071 3.1937 4.1211 3.6797 1.361 0.669 2.7858 0.90934 4.2988 0.65234 1.489-0.234 3.1468-1.1789 4.9238-2.8359 1.654-1.541 2.6385-3.059 2.9805-4.623 0.34-1.516 0.26967-2.8802-0.23633-4.1152-0.531-1.213-1.5557-2.6097-3.0977-4.2637l-6.18-6.616c-0.852-0.913-1.2818-1.5725-1.3398-1.9805-0.16-0.865 0.08066-1.5963 0.72266-2.1953l0.617-0.574-0.414-0.443zm210.12 22.725c-1.1731 0.0081-2.2336 0.35631-3.2168 1.0703-0.737 0.536-1.3004 1.1945-1.6914 1.9785-0.369 0.811-0.58591 1.718-0.62891 2.75-0.042 1.032 0.0696 2.6202 0.30664 4.7832 0.284 2.171 0.40609 3.5443 0.37109 4.0703-0.005 0.796-0.16482 1.4956-0.42382 2.0586-0.285 0.583-0.62194 1.036-1.0859 1.373-0.792 0.575-1.7121 0.74439-2.7891 0.52539-1.029-0.212-1.9844-0.89433-2.7774-1.9863-0.694-0.956-1.1309-2.0145-1.2969-3.1035-0.158-1.136-0.0292-2.1067 0.30078-2.9727 0.377-0.859 1.0951-1.8798 2.2461-3.0508l-0.35547-0.49024-6.1973 4.502 0.35742 0.49219c0.45-0.243 0.80158-0.33227 1.0176-0.32227 0.235 0.037 0.45623 0.16772 0.61523 0.38672 0.158 0.218 0.39291 0.88308 0.75391 1.9551 0.363 1.072 0.61281 1.7632 0.75781 2.0762 0.255 0.524 0.58589 1.0357 0.96289 1.5547 1.21 1.665 2.6932 2.6724 4.4492 3.0234 1.783 0.331 3.3548 0.02325 4.7188-0.96875 0.71-0.516 1.2803-1.2224 1.6973-2.0254s0.65411-1.6834 0.6621-2.6484c0.035-0.985-0.089-2.6491-0.41796-4.9961-0.388-2.888-0.46764-4.833-0.18164-5.875 0.159-0.7 0.53993-1.2671 1.0859-1.6641 0.709-0.515 1.5825-0.69228 2.5645-0.48828 1.03 0.211 1.8567 0.77674 2.5117 1.6777 0.595 0.819 0.98061 1.75 1.0996 2.832 0.146 1.062 0.008 2.0779-0.40429 3.0039-0.412 0.926-1.1485 1.92-2.2305 2.957l0.35742 0.49023 6.25-4.541-0.35742-0.49023c-0.488 0.188-0.84117 0.27723-1.0762 0.24023-0.256-0.065-0.47772-0.19802-0.63672-0.41602-0.158-0.219-0.30631-0.65274-0.44531-1.3027-0.283-1.422-0.79868-2.5893-1.5137-3.5723-1.11-1.529-2.4864-2.4482-4.1484-2.7832-0.41725-0.072-0.81991-0.1062-1.2109-0.10352zm-239.09 9.1133-0.3125 0.48047 11.146 16.609c0.963 1.429 1.5187 2.5538 1.6777 3.3008 0.061 0.401-0.08208 0.99295-0.45508 1.877l0.50977 0.33203 3.8223-5.8887-0.50977-0.33008c-0.644 0.869-1.1545 1.3425-1.5645 1.4785-0.391 0.108-0.73653 0.08439-1.0195-0.09961-0.339-0.22-0.81431-0.729-1.3203-1.5l-2.1465-3.2031 4.7227-7.2754 3.4238 0.61328c1.116 0.201 1.8774 0.45394 2.2734 0.71094 0.31 0.202 0.49216 0.48016 0.53516 0.91016 0.033 0.384-0.15647 0.98624-0.60547 1.7402l0.509 0.331 4.795-7.387-0.509-0.33c-0.552 0.727-1.1353 1.1929-1.7793 1.3789-0.671 0.167-1.7764 0.1347-3.3984-0.1543l-19.795-3.5938zm3.6602 3.7812 9.6133 1.7363-4.1875 6.4531-5.4258-8.1895zm249.53 3.6172-4.7461 2.2168 0.30078 0.56641c0.926-0.416 1.7522-0.588 2.4492-0.5 0.727 0.073 1.3215 0.33019 1.7695 0.74219 0.325 0.324 0.76291 0.93147 1.2539 1.8555l1.252 2.3535-15.08 8.0156c-1.102 0.586-1.8654 0.87617-2.2734 0.82617-0.698-0.088-1.2816-0.54295-1.7246-1.377l-0.36524-0.68555-0.53515 0.28516 4.4355 8.3438 0.53516-0.28516-0.36328-0.68555c-0.395-0.745-0.48935-1.4222-0.27735-2.0312 0.171-0.396 0.83855-0.9428 2.0606-1.5918l15.078-8.0137 1.4726 2.7715c0.444 0.834 0.64253 1.5698 0.64453 2.2188-0.016 0.62-0.21184 1.2588-0.58984 1.8418-0.263 0.369-0.77816 0.83456-1.5352 1.3516l0.30079 0.56641 4.5078-2.6641-8.5703-16.121zm-263.52 11.02l-6.4512 15.961 0.5625 0.22851 0.29102-0.7207c0.342-0.845 0.7828-1.3945 1.3418-1.6055 0.414-0.124 1.2797 0.08033 2.5938 0.61133l13.457 5.4395c1.001 0.405 1.6625 0.74485 1.9375 0.96485 0.294 0.264 0.42561 0.57218 0.47461 0.99218 0.042 0.527-0.01089 1.0156-0.21289 1.5156l-0.29102 0.7207 0.5625 0.22852 6.4512-15.961-4.4746-3.8848-0.25391 0.62695c1.017 1.175 1.7045 2.1798 2.0645 3.0898 0.31 0.672 0.42128 1.2995 0.36328 1.8945s-0.31811 1.51-0.78711 2.668l-1.416 3.5039c-0.227 0.563-0.45525 0.94503-0.65625 1.082-0.213 0.169-0.42048 0.232-0.64648 0.25s-0.80198-0.17792-1.709-0.54492l-6.8535-2.7695 1.8477-4.5703c0.341-0.844 0.73198-1.4502 1.084-1.7812 0.384-0.318 0.79094-0.51741 1.2109-0.56641 0.332-0.011 1.0532 0.0977 2.1172 0.3457l0.23047-0.56055-7.2305-2.9238-0.22656 0.56445c1.163 0.543 1.8817 1.196 2.1367 1.918 0.192 0.515 0.05003 1.4045-0.41797 2.5625l-1.8457 4.5684-8.1992-3.3125 2.3008-5.6973c0.418-1.033 0.7718-1.7293 1.0918-2.0723 0.422-0.413 0.88653-0.66205 1.3945-0.74805 0.521-0.117 1.3609-0.03259 2.5449 0.19141l0.24023-0.59375-4.627-1.6152zm252.6 15.939-0.57422 0.19922 2.2852 6.6348 0.57422-0.19727c-0.287-1.043-0.34717-1.7356-0.20117-2.1426 0.156-0.375 0.38803-0.63414 0.70703-0.74414 0.383-0.132 1.0751-0.19123 1.9941-0.11523l3.8457 0.28125 2.8223 8.1992-2.5898 2.3223c-0.846 0.755-1.5139 1.1976-1.9609 1.3516-0.351 0.121-0.68187 0.0923-1.0469-0.13868-0.32201-0.21-0.68105-0.72887-0.99805-1.5469l-0.57422 0.19726 2.8672 8.3281 0.57422-0.19727c-0.232-0.884-0.24024-1.63 0.01-2.252 0.282-0.632 0.9888-1.483 2.2168-2.584l15.02-13.381-0.18555-0.54297-19.949-1.4453c-1.719-0.122-2.9488-0.37594-3.6348-0.71094-0.354-0.199-0.73317-0.67763-1.2012-1.5156zm9.9434 3.998 9.793 0.76953-7.2871 6.5059-2.5058-7.2754zm-249.58 6.3164c-0.406 1.153-0.92864 2.0705-1.5566 2.6875-0.661 0.609-1.8196 1.276-3.4766 2.002l-7.2812 3.0273c-0.009-1.907-0.38892-3.4152-1.1699-4.5312-0.782-1.116-1.8326-1.8091-3.1816-2.1211-1.249-0.289-2.4253-0.14475-3.4883 0.40625-1.096 0.544-1.9405 1.3543-2.5195 2.3633-0.58 1.01-1.1407 2.6816-1.6797 5.0156l-1.832 7.9238 0.5918 0.13868 0.18945-0.82227c0.189-0.822 0.565-1.3938 1.125-1.7148 0.396-0.22 1.2811-0.15494 2.6621 0.16406l14.074 3.252c1.217 0.281 1.982 0.56296 2.291 0.87695 0.501 0.53101 0.64559 1.2567 0.43359 2.1777l-0.18945 0.82226 0.5918 0.13672 2.1582-9.3398-0.59375-0.13672-0.19531 0.85547c-0.19 0.821-0.55839 1.3608-1.1504 1.6738-0.398 0.219-1.2819 0.15379-2.6309-0.1582l-6.3457-1.4668c0.071-0.156 0.10848-0.32038 0.14648-0.48438 0.038-0.165 0.06961-0.29573 0.09961-0.42773 0.084-0.361 0.18134-0.78947 0.27734-1.3555l11.896-5.0098 1.3438-5.8203-0.58984-0.13476zm-18.271 4.5879c0.32156 0.0181 0.6528 0.0665 0.99805 0.14648 1.381 0.32 2.4106 1.1121 3.0566 2.3691 0.645 1.258 0.74072 2.9446 0.26172 5.0156-0.022 0.099-0.05398 0.23032-0.08398 0.36132-0.038 0.165-0.07509 0.3284-0.12109 0.5254l-9.0762-2.0977c0.046-1.097 0.13625-1.9434 0.28125-2.5684 0.327-1.414 1.0134-2.4328 2.0664-3.0898 0.78975-0.4935 1.6525-0.71649 2.6172-0.66211zm286.28 4.4629-5.2168 0.46094 0.0899 0.63476c1.012-0.074 1.8467 0.0481 2.4707 0.36914 0.658 0.316 1.1302 0.76078 1.4102 1.3008 0.194 0.415 0.39696 1.1359 0.54296 2.1719l0.3711 2.6406-16.908 2.377c-1.236 0.174-2.0529 0.187-2.4199 0-0.624-0.321-1.0174-0.94682-1.1484-1.8828l-0.10938-0.76953-0.60156 0.084 1.3144 9.3574 0.60352-0.084-0.10742-0.76953c-0.118-0.836 0.0266-1.5039 0.43359-2.0039 0.297-0.314 1.1085-0.59997 2.4785-0.79297l16.91-2.377 0.43555 3.1074c0.132 0.936 0.0706 1.6947-0.15039 2.3047-0.226 0.577-0.6286 1.1103-1.1836 1.5293-0.373 0.257-1.0163 0.51809-1.9043 0.74609l0.0879 0.63477 5.1465-0.96289-2.5449-18.076zm-294.73 14.5l-0.27539 7.9258 0.60547 0.0215 0.029297-0.8457c0.029-0.842 0.28839-1.4745 0.77539-1.8965 0.381-0.29 1.2635-0.39566 2.6465-0.34766l9.0371 0.31446c2.36 0.082 4.0401 0.3432 5.0371 0.7832 0.963 0.473 1.7438 1.2785 2.3438 2.4805 0.601 1.169 0.8938 2.4613 0.8418 3.9453-0.04 1.147-0.27328 2.0828-0.73828 2.8438-0.434 0.795-0.96103 1.3846-1.582 1.7676-0.655 0.383-1.5422 0.65616-2.6602 0.78516-1.118 0.097-2.1336 0.16181-2.9766 0.13281l-9.7461-0.33789c-1.247-0.044-2.0853-0.20939-2.4453-0.52539-0.594-0.392-0.84155-1.0744-0.81055-1.9844l0.03125-0.87695-0.60547-0.0215-0.33788 9.69 0.60547 0.0176 0.029297-0.84375c0.029-0.843 0.25408-1.477 0.70508-1.832 0.452-0.355 1.3368-0.52652 2.7188-0.47852l8.7344 0.30469c2.698 0.094 4.5237-0.0114 5.5137-0.31445 1.435-0.49 2.613-1.3261 3.5-2.5781 0.887-1.218 1.3896-3.0573 1.4746-5.4863 0.079-2.259-0.30006-4.028-1.1641-5.375-0.832-1.311-1.8471-2.2242-3.0781-2.7402-1.232-0.482-2.9431-0.74326-5.2031-0.82226l-9.0371-0.31446c-1.248-0.044-2.0206-0.20612-2.3496-0.45312-0.726-0.499-1.072-1.1855-1.041-2.0625l0.0292-0.84-0.60742-0.02zm275.1 10.107-0.16797 9.582 0.60547 0.01 0.0156-0.80859c0.01-0.54 0.15364-1.0437 0.43164-1.5117 0.209-0.334 0.44971-0.56611 0.72071-0.66211 0.374-0.129 1.1175-0.21727 2.2305-0.19727l14.439 0.25586c1.348 0.023 2.1885 0.20643 2.5215 0.48243 0.532 0.414 0.79139 1.0948 0.77539 2.0059l-0.0156 0.80859 0.60742 0.0117 0.16797-9.582-0.60742-0.0117-0.0137 0.77734c-0.01 0.54-0.15364 1.0418-0.43164 1.5098-0.175 0.335-0.4147 0.56611-0.7207 0.66211-0.339 0.163-1.0835 0.21826-2.2305 0.19726l-14.439-0.25586c-1.315-0.023-2.1885-0.17226-2.5215-0.44726-0.532-0.414-0.79044-1.0951-0.77344-2.0391l0.0137-0.77539-0.60742-0.0117zm-1.0645 14.23-0.0723 0.60352c0.494 0.129 0.81289 0.30498 0.96289 0.45898 0.148 0.188 0.21855 0.43413 0.18555 0.70313-0.032 0.267-0.31721 0.9114-0.78321 1.9414s-0.75432 1.7101-0.86132 2.0371c-0.17 0.557-0.27843 1.154-0.35743 1.791-0.251 2.043 0.14641 3.7921 1.1914 5.2461 1.078 1.459 2.4354 2.3057 4.1094 2.5117 0.871 0.108 1.771-0.0183 2.625-0.32226 0.853-0.302 1.627-0.78533 2.291-1.4863 0.698-0.696 1.7416-1.9956 3.1016-3.9356 1.687-2.377 2.957-3.8529 3.877-4.4199 0.594-0.403 1.2577-0.55856 1.9277-0.47656 0.871 0.108 1.629 0.57553 2.209 1.3945 0.608 0.857 0.82841 1.8344 0.69141 2.9394-0.123 1.005-0.47695 1.9483-1.127 2.8203-0.618 0.876-1.4127 1.5249-2.3457 1.9199-0.932 0.396-2.1504 0.62062-3.6484 0.64062l-0.0742 0.60352 7.6699 0.9414 0.0723-0.60156c-0.486-0.196-0.80518-0.37059-0.95118-0.55859-0.143-0.221-0.21464-0.46833-0.18164-0.73633 0.034-0.269 0.2205-0.68686 0.5625-1.2559 0.764-1.233 1.184-2.4405 1.332-3.6465 0.23-1.875-0.14876-3.4862-1.1348-4.8652-1.024-1.35-2.2895-2.1174-3.8965-2.3144-0.904-0.111-1.7669-0.0131-2.5859 0.29492-0.824 0.341-1.6029 0.85603-2.3379 1.582-0.735 0.726-1.7361 1.9621-3.0391 3.7051-1.274 1.782-2.1209 2.8675-2.5059 3.2285-0.547 0.578-1.1399 0.9818-1.7129 1.2168-0.606 0.232-1.1634 0.33367-1.7324 0.26367-0.971-0.12-1.7575-0.62453-2.3965-1.5195-0.609-0.858-0.84078-2.0076-0.67578-3.3476 0.145-1.172 0.54792-2.2434 1.1699-3.1524 0.659-0.94 1.416-1.5618 2.248-1.9688 0.86199-0.37 2.0816-0.62726 3.7226-0.69726l0.0742-0.60352-7.6035-0.93555zm-256.78 5.0547c-0.27384 0.005-0.54802 0.0318-0.82226 0.0801-1.463 0.258-2.5709 0.96803-3.3809 2.207-0.597 0.893-0.89403 2.1093-0.95703 3.6973-0.661-1.221-1.4682-2.1052-2.4512-2.6172-1.021-0.54-2.0436-0.70277-3.1406-0.50977-1.296 0.228-2.3494 0.86039-3.1934 1.9004s-1.3263 2.3929-1.4043 4.0859c-0.078 1.11 0.038609 2.5622 0.34961 4.3242l1.6777 9.5039 0.59766-0.10547-0.14453-0.83008c-0.147-0.831-0.026859-1.5044 0.36914-1.9844 0.307-0.397 1.1478-0.68187 2.5098-0.92187l14.225-2.5078c1.229-0.217 2.044-0.25764 2.457-0.0566 0.668 0.293 1.0861 0.90573 1.2441 1.8027l0.14453 0.83008 0.59961-0.10547-1.8281-10.367c-0.44-2.494-0.99392-4.2805-1.6699-5.3945-0.682-1.149-1.5792-1.9507-2.6992-2.4726-0.83925-0.39151-1.6609-0.57336-2.4824-0.5586zm1.0566 3.7168c0.92878 0.0306 1.7917 0.36884 2.5762 1.0273 1.079 0.872 1.7731 2.291 2.1191 4.252 0.217 1.23 0.30061 2.4828 0.22461 3.7988l-9.0059 1.5879c-0.119-0.288-0.21689-0.64762-0.33789-1.1406-0.082-0.465-0.21489-1.0257-0.33789-1.7227-0.269-1.53-0.26628-2.8657 0.01172-4.0117 0.25-1.107 0.74789-1.9829 1.4629-2.5879 0.716-0.606 1.4719-0.97886 2.3359-1.1309 0.324-0.0573 0.64158-0.0825 0.95117-0.0723zm-10.723 2.4883c0.61275-0.0211 1.2084 0.086 1.7852 0.29297 0.775 0.309 1.4108 0.81473 1.8848 1.5527 0.473 0.739 0.84986 1.906 1.1309 3.502 0.106 0.597 0.20462 1.1622 0.26562 1.6992 0.054 0.505 0.07022 0.98158 0.07422 1.3926l-8.4746 1.4941c-0.385-0.823-0.65466-1.7702-0.84766-2.8672-0.357-2.027-0.19627-3.6332 0.55273-4.8262 0.71-1.223 1.7138-1.9468 3.0098-2.1758 0.20775-0.0365 0.41489-0.0574 0.61914-0.0644zm262.96 12.07-2.9199 8.9883 0.57813 0.18946 0.24023-0.73829c0.26-0.80199 0.68453-1.3403 1.2695-1.6113 0.404-0.153 1.2582-0.052 2.5742 0.375l16.244 5.2734-0.96875 2.9844c-0.292 0.899-0.68048 1.5539-1.1465 2.0059-0.456 0.419-1.0504 0.72247-1.7324 0.85547-0.44799 0.067-1.144 0.0209-2.041-0.16406l-0.19727 0.60937 5.0488 1.3906 5.6387-17.367-4.8945-1.873-0.19726 0.61133c0.943 0.376 1.6395 0.85106 2.0605 1.4141 0.453 0.572 0.68127 1.1791 0.69727 1.7871-0.007 0.459-0.14089 1.1964-0.46289 2.1914l-0.82227 2.5352-16.246-5.2715c-1.189-0.386-1.9278-0.7335-2.1758-1.0625-0.42-0.561-0.50099-1.2973-0.20899-2.1953l0.23828-0.74024-0.57617-0.1875zm-240.46 13.02c-0.23638-0.004-0.47248 0.0418-0.70898 0.13281-0.473 0.181-0.79062 0.48364-1.0156 0.93164-0.214 0.481-0.2142 0.94888-0.0332 1.4219 0.182 0.473 0.49684 0.82286 0.96484 1.0059 0.448 0.226 0.91862 0.22497 1.3906 0.043 0.472-0.182 0.82116-0.49757 1.0352-0.97657 0.194-0.437 0.22692-0.91762 0.04492-1.3906-0.181-0.473-0.52784-0.81091-0.96484-1.0039-0.24-0.107-0.47652-0.16006-0.71289-0.16406zm234.73 3.6836-3.9004 8.7539 0.55469 0.24805 0.33008-0.74024c0.219-0.494 0.54832-0.90065 0.98632-1.2226 0.322-0.225 0.63488-0.34513 0.92188-0.32813 0.395 0.028 1.1129 0.23741 2.1309 0.69141l13.191 5.877c1.233 0.55 1.9348 1.0476 2.1328 1.4316 0.328 0.589 0.30164 1.3164-0.0684 2.1484l-0.33008 0.73828 0.55469 0.24805 3.9004-8.7539-0.55664-0.24805-0.31446 0.70899c-0.219 0.493-0.55028 0.90165-0.98828 1.2226-0.291 0.24-0.60387 0.35913-0.92187 0.32813-0.377 0.017-1.0829-0.22245-2.1309-0.68945l-13.191-5.8789c-1.202-0.535-1.9485-1.0144-2.1465-1.3984-0.328-0.59-0.30002-1.3177 0.084-2.1797l0.31641-0.70899-0.55469-0.24805zm-232.66 7.0176c-1.0197-0.0281-1.9896 0.20813-2.9121 0.71875-0.767 0.426-1.4196 1.0567-1.9316 1.8027-0.512 0.747-0.85352 1.5918-0.97852 2.5488-0.155 0.974-0.23531 2.6378-0.19531 5.0078 0.033 2.914-0.12711 4.8545-0.53711 5.8535-0.243 0.675-0.6883 1.1925-1.2793 1.5195-0.766 0.425-1.6555 0.49388-2.6055 0.17188-0.996-0.335-1.7491-0.99866-2.2891-1.9727-0.49-0.885-0.75814-1.8544-0.74414-2.9434-0.015-1.072 0.24658-2.0646 0.76758-2.9316 0.521-0.868 1.3742-1.7661 2.5742-2.6621l-0.29492-0.53125-6.7578 3.7461 0.29688 0.52734c0.508-0.128 0.86866-0.17047 1.0977-0.10547 0.246 0.095 0.44908 0.25228 0.58008 0.48828s0.2252 0.68566 0.2832 1.3477c0.107 1.445 0.47545 2.6655 1.0645 3.7285 0.916 1.653 2.1693 2.7345 3.7773 3.2695 1.622 0.49 3.0977 0.36703 4.5137-0.41797 0.797-0.442 1.4379-1.0298 1.9199-1.7598 0.467-0.759 0.79098-1.6323 0.95898-2.6523 0.168-1.018 0.2503-2.6092 0.2793-4.7852-0.018-2.189 0.02991-3.564 0.12891-4.082 0.103-0.79 0.34688-1.4652 0.67187-1.9922 0.354-0.542 0.74409-0.95347 1.2461-1.2305 0.855-0.475 1.79-0.53064 2.832-0.18164 0.996 0.335 1.8597 1.1296 2.5137 2.3106 0.572 1.032 0.8772 2.1363 0.9082 3.2383 0.019 1.147-0.22811 2.0931-0.66211 2.9121-0.48 0.806-1.3156 1.7329-2.6016 2.7539l0.29492 0.53125 6.6973-3.7129-0.29297-0.53125c-0.476 0.186-0.83583 0.23231-1.0488 0.19531-0.229-0.065-0.43345-0.22299-0.56445-0.45899s-0.28077-0.9262-0.50977-2.0332c-0.228-1.108-0.39405-1.8253-0.49805-2.1523-0.19-0.551-0.45462-1.0972-0.76562-1.6582-0.998-1.8-2.3469-2.981-4.0469-3.543-0.64875-0.20475-1.2788-0.31713-1.8906-0.33399zm229.46 8.543c-0.31552-0.00072-0.63229 0.0105-0.95117 0.0352-3.391 0.269-6.0862 1.9698-8.0352 5.0898-1.09 1.746-1.6674 3.4959-1.6524 5.2559-0.015 1.742 0.52014 3.6289 1.6191 5.6289l0.55274-0.25196c-0.876-2.1-1.2625-3.774-1.1875-5.041 0.047-1.285 0.46928-2.5337 1.2383-3.7637 0.876-1.402 2.0063-2.4474 3.3613-3.1524 1.384-0.688 2.8303-0.89954 4.4473-0.68555 1.6 0.243 3.2478 0.91529 4.9648 1.9883 2.062 1.288 3.6288 2.6653 4.6738 4.1133 1.045 1.449 1.5475 2.8774 1.5625 4.3184 0.004 1.395-0.39854 2.7361-1.1855 3.9961-0.93 1.488-2.1638 2.5091-3.6738 3.0781-1.521 0.523-3.4128 0.49556-5.7168-0.14844l-0.26953 0.42969 6.7109 3.5938 0.30273-0.48633c-0.357-0.383-0.62103-0.78621-0.70703-1.1582-0.047-0.308-0.036-0.57989 0.125-0.83789 0.107-0.172 0.39903-0.38776 0.83203-0.63476 1.528-0.916 2.685-2.0635 3.543-3.4375 1.091-1.746 1.681-3.6459 1.752-5.6699 0.042-2.043-0.45571-3.9868-1.5117-5.8008-1.038-1.842-2.5153-3.362-4.4043-4.543-2.0545-1.2828-4.182-1.911-6.3906-1.916zm-216.62 7.5215c-0.36605 0.007-0.70122 0.12354-1.0117 0.34179-0.415 0.29-0.65172 0.66139-0.76172 1.1504-0.091 0.517 0.02345 0.97467 0.31445 1.3887 0.29 0.415 0.67874 0.67724 1.1777 0.74024 0.489 0.11 0.94733-0.002 1.3613-0.29297 0.415-0.29 0.67658-0.67927 0.76758-1.1973 0.083-0.469-0.003-0.94437-0.29297-1.3594-0.291-0.415-0.70673-0.65919-1.1777-0.74219-0.12925-0.0228-0.25494-0.0316-0.37695-0.0293zm198.85 8.8945-0.41406 0.44336c0.324 0.395 0.48072 0.7235 0.51172 0.9375 0.008 0.24-0.0797 0.48073-0.26367 0.67773-0.184 0.198-0.79239 0.55328-1.7754 1.1133-0.983 0.561-1.6155 0.93963-1.8945 1.1406-0.465 0.35-0.90285 0.77218-1.3398 1.2422-1.404 1.506-2.1101 3.1543-2.1191 4.9453 0.017 1.814 0.61756 3.2973 1.8516 4.4473 0.641 0.598 1.4455 1.0233 2.3145 1.2793 0.869 0.257 1.7786 0.31958 2.7266 0.14258 0.974-0.154 2.5822-0.59228 4.8242-1.3633 2.76-0.933 4.6554-1.3798 5.7324-1.2988 0.717 0.022 1.3468 0.28609 1.8398 0.74609 0.643 0.599 0.98271 1.4218 0.97071 2.4258-0.012 1.051-0.40797 1.9721-1.168 2.7871-0.69 0.74-1.5294 1.2942-2.5684 1.6172-1.014 0.347-2.0414 0.40769-3.0274 0.17969-0.987-0.229-2.1031-0.761-3.3281-1.625l-0.41406 0.44336 5.6523 5.2695 0.41406-0.44727c-0.277-0.444-0.4324-0.77176-0.4414-1.0098 0.015-0.264 0.10211-0.50613 0.28711-0.70313 0.183-0.199 0.58236-0.4265 1.1934-0.6875 1.342-0.549 2.3898-1.278 3.2188-2.168 1.288-1.381 1.9255-2.9085 1.9375-4.6035-0.035-1.694-0.60697-3.0601-1.793-4.1641-0.666-0.621-1.4216-1.0482-2.2656-1.2812-0.867-0.208-1.8003-0.24679-2.8223-0.0918-1.022 0.155-2.5577 0.56884-4.6367 1.2148-2.076 0.695-3.4008 1.0766-3.9238 1.1426-0.783 0.147-1.5015 0.12256-2.1035-0.0234-0.627-0.169-1.1366-0.41269-1.5566-0.80469-0.716-0.667-1.0559-1.5387-1.0469-2.6387 0.011-1.05 0.49697-2.1175 1.418-3.1055 0.805-0.863 1.7628-1.4942 2.8008-1.8652 1.085-0.372 2.0616-0.42853 2.9746-0.26953 0.914 0.206 2.0568 0.71509 3.4258 1.6211l0.41406-0.44336-5.6055-5.2226zm-192.43 2.3789c-0.68488 0.0385-1.3356 0.18255-1.9531 0.43555-1.213 0.531-2.6097 1.5576-4.2637 3.0996l-6.6172 6.166c-0.914 0.851-1.5725 1.2818-1.9805 1.3398-0.865 0.16-1.5963-0.0816-2.1953-0.72461l-0.57422-0.61719-0.44531 0.41602 5.4082 5.8027 0.44336-0.41601-0.57422-0.61524c-0.575-0.618-0.83997-1.2476-0.79297-1.8906 0.064-0.475 0.61495-1.1722 1.627-2.1152l6.6152-6.168c1.728-1.611 3.1002-2.6109 4.1172-3.0059 1.015-0.346 2.1381-0.33129 3.4121 0.0957 1.252 0.402 2.3718 1.1103 3.3848 2.1973 0.782 0.839 1.2783 1.6692 1.4863 2.5352 0.256 0.869 0.30081 1.6562 0.13281 2.3672-0.193 0.734-0.62912 1.5545-1.3281 2.4375-0.723 0.858-1.3947 1.6232-2.0117 2.1992l-7.1348 6.6484c-0.914 0.851-1.6226 1.3284-2.1016 1.3594-0.699 0.143-1.3556-0.16799-1.9766-0.83399l-0.59961-0.64258-0.44336 0.41407 6.6035 7.084 0.44336-0.41406-0.57422-0.61523c-0.576-0.61701-0.86488-1.2239-0.79688-1.7949 0.067-0.571 0.57098-1.3187 1.584-2.2617l6.3945-5.959c1.975-1.841 3.1947-3.2071 3.6797-4.1211 0.669-1.362 0.90934-2.7868 0.65234-4.3008-0.234-1.488-1.1799-3.1449-2.8359-4.9219-1.542-1.654-3.06-2.6385-4.623-2.9805-0.758-0.17-1.4772-0.23772-2.1621-0.19922z"/></g></svg>
